<?xml version="1.0" encoding="UTF-8"?>
<!DOCTYPE svg PUBLIC "-//W3C//DTD SVG 1.1//EN" "http://www.w3.org/Graphics/SVG/1.1/DTD/svg11.dtd">
<!-- Creator: CorelDRAW -->
<svg xmlns="http://www.w3.org/2000/svg" xml:space="preserve" width="150mm" height="150mm" style="shape-rendering:geometricPrecision; text-rendering:geometricPrecision; image-rendering:optimizeQuality; fill-rule:evenodd; clip-rule:evenodd"
viewBox="0 0 150 150"
 version="1.2">
 <defs>
  <style type="text/css">
   <![CDATA[
    .fil0 {fill:#131516}
    .fil10 {fill:#17181A}
    .fil9 {fill:#18181B}
    .fil8 {fill:#1C1B1E}
    .fil7 {fill:#A62D31}
    .fil4 {fill:#A62D32}
    .fil1 {fill:#A72D31}
    .fil11 {fill:#A72E33}
    .fil3 {fill:#A72E34}
    .fil5 {fill:#A82F36}
    .fil12 {fill:#A83036}
    .fil14 {fill:#A83038}
    .fil13 {fill:#AA333C}
    .fil6 {fill:#D9999E}
    .fil2 {fill:#DA9A9F}
   ]]>
  </style>
 </defs>
 <g id="Capa_x0020_1">
  <metadata id="CorelCorpID_0Corel-Layer"/>
  <polygon class="fil0" points="0,0 150,0 150,150 0,150 "/>
  <g id="_200207176">
   <path id="_200212936" class="fil0" d="M112.9 32.7382c2.617,2.301 0.6467,1.2332 2.7072,2.4063 0.1203,2.4214 0.1504,2.4064 0.1504,2.4064 -0.2858,-0.1204 -0.2707,0 -0.3008,-0.1504m-2.5568 -4.6623l0 0 0 0z"/>
   <polygon id="_200213656" class="fil1" points="91.5438,42.514 93.9502,42.514 97.1085,42.9653 99.3645,43.7172 101.771,44.9204 103.726,46.2741 105.381,47.778 106.433,48.9812 107.787,50.9364 108.99,53.3428 109.742,55.5988 110.193,57.5539 110.494,59.3587 110.494,62.3667 110.043,65.5251 109.441,67.7811 108.388,70.4883 107.185,72.8946 105.982,75.1506 103.275,79.2114 101.169,82.069 99.515,84.1745 98.1613,85.8289 96.2062,88.0849 94.4014,90.1905 92.2958,92.4465 90.491,94.2513 89.4382,94.1009 85.5278,92.2961 80.4143,89.8898 71.992,85.9794 68.8336,84.4754 68.6832,84.325 68.8336,82.069 69.736,74.3987 70.9392,67.33 71.6912,64.0212 71.6912,64.0212 72.1425,62.6673 73.3457,58.757 74.5489,55.5986 76.2032,52.4402 77.7072,50.3346 79.512,48.3794 80.5648,47.3266 82.52,45.8227 84.776,44.4691 86.4303,43.7171 88.0847,43.1155 90.3407,42.6643 "/>
   <polygon id="_200213752" class="fil2" points="91.5438,42.514 93.9502,42.514 97.1085,42.9653 99.3645,43.7172 101.771,44.9204 103.726,46.2741 105.381,47.778 106.433,48.9812 107.787,50.9364 108.99,53.3428 109.742,55.5988 110.193,57.5539 110.494,59.3587 110.494,61.809 110.361,63.2993 110.428,62.5542 110.428,62.5542 110.428,62.5542 72.1425,62.6673 72.1425,62.6673 72.1425,62.6673 73.3457,58.757 74.5489,55.5986 76.2032,52.4402 77.7072,50.3346 79.512,48.3794 80.5648,47.3266 82.52,45.8227 84.776,44.4691 86.4303,43.7171 88.0847,43.1155 90.3407,42.6643 "/>
   <polygon id="_200213848" class="fil1" points="67.6305,87.4831 68.5329,87.7839 73.1952,90.0399 77.4063,91.9951 83.1215,94.7022 85.3775,95.9054 87.7838,96.8078 88.0847,96.9582 87.7838,97.8606 85.6782,101.621 84.1743,103.726 82.8207,105.381 81.6175,106.584 79.3615,108.088 76.9551,108.99 76.3535,109.141 73.6464,109.14 71.2401,108.388 68.8337,107.185 67.4801,106.132 66.2769,104.929 65.0737,102.523 64.6225,101.019 64.6225,96.9581 65.3745,93.7997 66.2769,90.7917 67.4801,87.6334 "/>
   <polygon id="_200213920" class="fil3" points="88.987,17.6983 90.9422,17.8487 94.7022,18.7511 97.1085,19.5031 98.7629,20.5559 99.6653,21.7591 100.267,23.2631 100.417,24.015 100.417,25.2182 99.8157,27.023 98.9133,28.2262 97.8605,29.1286 96.3566,29.8806 95.755,30.031 94.251,30.031 91.0926,29.279 89.8894,28.8278 89.1374,32.5878 88.6862,34.2421 86.8814,33.9413 85.3774,33.6405 85.227,33.1893 85.6782,31.9861 87.1822,25.6694 87.6334,24.1654 87.9342,22.511 88.0847,22.3606 88.5359,19.9543 "/>
   <polygon id="_200214832" class="fil4" points="68.0817,16.4952 79.9632,16.4952 80.1136,19.6536 79.9632,19.804 71.3904,19.8039 71.3904,22.9623 77.8576,22.9622 78.008,23.1127 78.008,26.4214 71.5408,26.4215 71.6912,29.5798 79.9632,29.7302 80.1136,29.8807 80.1136,32.7382 79.9632,32.8886 78.3088,33.039 68.2321,33.0389 68.0817,32.8885 67.9313,16.6455 "/>
   <polygon id="_200214688" class="fil2" points="54.245,42.3636 57.253,42.3636 59.3586,42.6644 61.6146,43.266 64.3218,44.4692 66.5778,45.8228 68.533,47.4772 70.9393,49.8836 72.7441,52.4403 72.8945,53.4931 71.2401,55.1475 70.4881,53.7939 68.9841,51.6883 67.6305,50.1843 65.9761,48.8307 64.4722,47.7779 62.6674,46.7251 59.8098,45.6723 58.1555,45.3715 54.3954,45.3716 51.8387,45.8228 49.7331,46.5748 47.3267,48.0788 45.6724,49.4324 44.1684,51.0868 42.9652,53.0419 42.0628,54.9971 41.4612,56.9523 41.1197,62.1135 38.4532,62.0658 38.4532,59.3587 38.754,56.8019 39.506,53.9443 41.01,50.7859 42.5139,48.6804 44.9203,46.274 46.725,44.9204 49.1314,43.7172 51.0866,42.9652 53.0418,42.514 "/>
   <polygon id="_200214952" class="fil4" points="35.2949,25.8198 36.6485,25.8198 38.0021,26.1206 39.5061,27.023 40.4084,27.775 40.1076,28.527 38.3028,30.4822 37.7013,30.1814 36.7989,29.4294 36.3477,29.279 35.2949,29.279 33.7909,30.0309 32.8885,31.0837 32.8885,32.4374 33.1893,32.5878 34.2421,32.5878 38.754,31.6854 40.5588,31.6854 41.762,31.9862 42.9652,32.5878 43.8676,33.6406 44.4692,34.9942 44.4692,36.9494 43.8676,38.6037 42.8148,39.9573 41.4612,41.1605 39.9572,41.9125 38.4533,42.3637 36.7989,42.3636 34.9941,41.9124 33.9413,41.3108 33.1893,40.5589 32.8885,40.4084 33.0389,39.8069 34.0917,38.4533 34.3925,37.8517 35.2949,38.0021 35.5957,38.6037 37.2501,38.9045 38.6037,38.7541 39.9573,38.0021 40.4086,37.5509 40.7092,37.5509 41.01,36.6485 41.01,35.5957 40.8596,35.2949 38.9044,35.2949 34.8436,36.0469 32.4373,36.0469 30.9333,35.2949 29.7301,33.9413 29.2789,32.8885 29.2789,30.7829 29.8805,29.279 30.9333,27.9254 32.1365,26.8726 33.6404,26.1206 "/>
   <polygon id="_200214304" class="fil4" points="119.382,29.5948 119.789,30.8883 119.909,32.2719 119.503,33.9714 119.052,35.0694 118.255,35.0092 115.848,33.8812 115.953,33.2045 116.39,32.1216 116.39,31.6403 116.074,30.6476 114.901,29.4444 113.622,28.903 112.344,29.3091 112.284,29.64 112.6,30.6476 114.825,34.6633 115.382,36.3929 115.457,37.6261 115.247,38.9496 114.51,40.1378 113.412,41.1154 111.547,41.7019 109.787,41.6418 108.178,41.0402 106.614,40.1228 105.441,38.9045 104.568,37.6111 104.057,36.032 103.952,34.1821 104.207,32.9939 104.689,32.0464 104.749,31.7155 105.365,31.6854 106.975,32.272 107.636,32.3773 107.757,33.2797 107.275,33.7459 107.501,35.4153 108.042,36.6636 109.17,37.7314 109.742,38.0172 109.832,38.3029 110.78,38.318 111.787,38.0022 112.028,37.7615 111.441,35.8966 109.486,32.257 108.764,29.9709 109.02,28.3015 109.953,26.7524 110.81,26.0004 112.825,25.3687 114.434,25.4891 116.043,26.0756 117.412,26.9028 118.585,28.106 "/>
   <polygon id="_200215456" class="fil1" points="41.1197,62.1135 38.4532,62.0658 41.1197,62.1135 42.6644,69.2849 44.3188,72.744 45.522,74.8496 47.778,78.1584 49.8836,81.0159 51.9891,83.5727 53.3428,85.2271 54.3956,86.2799 55.4484,87.4831 56.802,88.987 58.4563,90.7918 60.4115,92.747 61.4643,93.9502 62.0659,94.7022 61.9155,98.4621 61.1635,97.7102 59.6595,95.755 57.8548,93.6494 56.2004,91.8446 53.9444,89.4382 52.29,87.6335 50.9364,85.9791 49.282,84.0239 48.0788,82.52 46.2741,80.1136 44.6197,77.7073 42.9653,75.1505 41.7621,73.1953 40.1077,69.7362 39.0549,66.5778 38.7541,65.2242 38.4532,62.0658 "/>
   <polygon id="_200215312" class="fil5" points="58.757,17.6983 59.0578,17.8487 59.3586,19.2023 59.6594,20.7063 59.3586,21.0071 55.5986,22.0599 55.2978,22.0599 58.005,32.7381 58.4562,34.0917 58.4562,34.6933 56.501,35.2949 55.1474,35.5957 54.8466,34.8437 52.741,26.4214 51.989,23.5638 51.989,22.9622 48.2291,23.8646 47.1763,23.8646 46.8755,21.9095 46.7251,20.8567 47.7779,20.4054 50.7859,19.6535 53.9443,18.7511 56.8019,18.1495 57.7042,17.8487 "/>
   <polygon id="_200215504" class="fil2" points="67.6305,87.4831 68.5329,87.7839 73.1952,90.0399 77.4063,91.9951 83.1215,94.7022 88.0847,96.9582 85.603,95.8302 88.0847,96.9582 86.86,96.8744 88.0847,96.9582 64.9985,95.3789 64.9985,95.3789 65.0737,95.1535 65.8257,92.1455 67.0289,88.8367 "/>
   <polygon id="_200215240" class="fil1" points="16.0439,78.9104 16.4951,78.9104 16.7959,79.512 16.6455,80.264 11.6823,84.3247 10.1784,85.6783 9.276,86.2799 9.1256,86.5807 10.6295,86.2799 16.1943,85.8287 19.2023,85.5279 19.8038,86.4303 19.6534,87.0318 17.8487,88.6862 16.1943,90.0398 15.4423,90.6414 14.6903,91.5438 13.036,92.8974 12.284,93.6494 13.7879,93.3486 17.2471,93.0477 22.2103,92.4462 22.6615,93.0477 22.6615,93.6493 19.6535,94.1005 16.1943,94.4014 16.0439,94.5518 12.4344,94.8526 11.0808,94.8526 10.4792,93.6494 11.532,92.4462 13.788,90.3406 14.54,89.5886 15.292,89.1374 17.3975,87.1822 16.1943,87.1822 15.5927,87.3327 8.2232,87.7839 7.772,87.4831 7.4712,86.4303 8.5239,85.2271 10.6295,83.4223 11.2311,82.8207 11.9831,82.3695 13.6375,80.8655 15.7431,79.2112 "/>
   <polygon id="_200215720" class="fil6" points="133.054,79.6624 135.009,79.6624 136.062,80.264 136.814,81.1663 137.114,82.2191 139.22,81.6176 141.175,81.768 142.529,82.0688 142.529,82.9712 141.927,83.1216 139.972,82.8208 138.619,83.1216 137.867,83.1215 137.114,84.3247 136.363,85.9791 136.062,86.7311 136.212,87.3327 137.415,87.7839 137.415,87.9343 136.362,87.9343 136.513,88.3855 136.814,88.6863 136.062,88.5359 131.851,87.1823 129.444,86.2799 129.595,85.5279 130.948,81.6176 131.851,80.4144 132.603,79.8128 "/>
   <polygon id="_200215984" class="fil7" points="94.4014,118.766 95.1534,118.916 96.6573,120.571 97.7101,121.774 99.5149,124.03 100.267,124.782 101.771,126.436 102.523,127.339 102.523,127.94 101.62,128.091 99.9661,126.436 99.8157,126.135 98.7629,126.286 94.2509,127.94 93.7997,130.948 93.6493,131.099 92.8974,131.099 92.8974,125.835 93.1982,119.518 93.7998,118.916 "/>
   <polygon id="_200216104" class="fil8" points="27.9253,100.869 28.6774,100.869 29.5798,101.921 29.279,102.824 27.3238,106.433 26.1206,108.84 24.1654,112.299 23.5638,112.148 24.3158,109.592 24.1654,108.84 22.5111,106.884 21.1575,105.23 20.8566,104.929 19.503,105.08 18.6006,105.381 17.6983,105.38 17.0967,105.08 17.2471,104.628 20.7063,103.275 22.6615,102.824 24.0151,102.222 "/>
   <polygon id="_200216176" class="fil2" points="89.8894,18.4503 95.4542,19.8039 97.1085,20.4055 98.6125,21.7591 99.3645,23.4135 99.3645,25.5191 99.1389,25.9703 97.8605,25.8199 97.7101,23.7143 97.1085,22.5111 96.3566,21.9095 93.7998,21.1575 90.9422,20.556 90.7918,21.9096 90.3406,23.7143 90.1132,24.5371 90.1132,24.5371 89.2411,24.8921 88.6862,24.3159 88.6862,24.3159 88.987,21.9095 89.5886,18.9015 "/>
   <polygon id="_200215864" class="fil6" points="50.4851,117.563 51.5379,117.713 51.8387,118.164 50.1843,122.676 50.0339,123.278 56.6514,119.969 58.3058,119.969 58.3058,120.42 55.4482,121.924 53.4931,122.827 54.245,123.579 55.1474,124.782 55.749,126.286 55.749,127.339 55.4482,128.391 55.1474,127.94 54.5458,125.684 53.7938,124.932 52.741,124.03 51.8386,123.729 50.1843,124.331 49.2819,124.782 48.6803,124.782 48.6803,125.083 48.2291,125.083 48.3795,124.03 50.3347,117.864 "/>
   <polygon id="_200216440" class="fil0" points="91.6942,21.6087 93.9502,22.0599 95.4542,22.5111 96.3566,23.1127 96.8078,23.7143 96.9582,24.7671 96.3566,25.9703 95.4542,26.5719 94.1006,26.5718 90.7918,25.8198 91.0926,24.015 91.5439,21.759 "/>
   <polygon id="_200216968" class="fil9" points="133.655,80.7152 134.708,80.7152 135.761,81.4672 136.212,82.3695 136.062,83.7232 135.009,86.8815 133.355,86.4303 131.099,85.5279 130.948,85.0767 132.001,82.0687 132.903,81.0159 "/>
   <polygon id="_200216800" class="fil6" points="126.135,92.5966 127.188,93.1982 125.534,95.755 123.729,98.4621 124.18,98.9134 126.737,100.568 127.038,100.718 129.595,96.6574 130.347,97.1086 127.79,101.32 128.993,102.373 128.542,102.523 128.993,103.275 128.843,103.576 125.835,101.621 122.977,99.8158 121.924,99.0638 122.676,97.7102 "/>
   <polygon id="_200216872" class="fil6" points="58.3058,18.6007 58.4562,18.6007 58.6066,20.1047 57.253,20.5559 54.245,21.6087 54.6963,23.4135 56.0243,28.4642 53.9693,28.852 52.9435,24.8393 52.4509,22.7751 52.1755,21.9006 48.5298,22.812 47.9283,22.8119 47.4771,21.4583 49.4323,20.8567 "/>
   <polygon id="_200216776" class="fil6" points="81.3167,121.924 82.0687,121.924 82.2192,122.526 82.0687,123.127 75.752,123.579 75.752,127.339 78.6096,127.188 80.8655,127.188 80.8655,128.091 76.8048,128.391 75.9024,128.542 75.9024,130.046 75.4511,131.099 74.9999,130.798 74.5487,126.737 74.2479,122.526 74.3983,122.375 78.1583,122.075 "/>
   <polygon id="_200216632" class="fil6" points="68.8337,17.2472 79.2112,17.2472 79.2112,18.3 79.0608,18.7512 70.6384,18.9016 70.488,21.3079 68.7763,21.3016 "/>
   <polygon id="_200217592" class="fil1" points="37.7013,110.193 38.4533,110.193 38.9045,110.494 38.7541,111.096 36.6485,114.104 35.7461,115.608 34.0917,118.014 33.4901,119.067 35.1445,120.27 38.7541,122.676 38.3028,123.579 37.5509,123.278 36.0469,122.225 33.6405,120.721 31.8358,119.518 31.9862,118.766 33.6405,116.209 34.0918,115.758 35.7461,113.051 "/>
   <polygon id="_200217952" class="fil2" points="27.9253,100.869 28.6774,100.869 29.5798,101.921 29.279,102.824 27.3238,106.433 26.4214,107.787 26.1206,107.787 25.8197,108.689 25.2182,109.14 25.519,108.388 25.519,107.336 28.0758,102.222 23.1126,103.876 21.759,104.027 21.6086,104.328 22.3605,104.929 23.4133,106.132 24.767,107.637 24.9174,108.088 24.4661,108.539 23.8646,107.787 23.1126,107.035 21.6086,105.381 21.6086,104.929 21.007,104.779 21.007,104.478 20.5558,104.328 21.3078,103.726 21.6086,103.125 22.9622,102.673 24.4662,102.072 "/>
   <polygon id="_200217664" class="fil2" points="110.043,110.945 111.396,111.096 112.299,111.547 112.449,111.848 111.848,112.6 110.945,112.299 109.742,112.299 108.238,113.051 107.336,114.254 107.336,115.608 108.088,116.36 109.14,116.36 112.299,115.457 113.051,115.307 114.856,115.307 115.758,115.908 116.059,116.66 115.608,116.811 115.457,116.209 114.104,116.209 112.299,116.66 109.441,117.563 107.636,117.563 106.884,117.112 106.132,116.209 105.982,115.908 105.982,114.254 106.734,112.75 108.088,111.547 109.291,111.096 "/>
   <polygon id="_200214496" class="fil6" points="112.9,26.1206 113.953,26.1206 115.758,26.7222 117.112,27.6246 118.315,28.9782 118.916,30.4822 118.916,32.1365 117.713,32.2869 117.412,31.6854 117.112,30.3318 116.209,28.9782 114.104,27.9254 112.299,27.9254 111.246,28.527 110.644,29.5798 109.441,28.5269 109.892,27.6245 110.945,26.7222 111.998,26.2709 "/>
   <polygon id="_200217880" class="fil1" points="14.5399,89.5887 14.8407,89.7391 14.0887,90.6415 14.2392,91.0927 13.9383,91.0926 13.9383,91.3934 14.8407,90.7919 13.4872,92.5966 12.4344,93.3486 12.284,93.6494 13.7879,93.3486 17.2471,93.0478 22.2103,92.4462 22.6615,93.0478 22.6615,93.6494 19.6535,94.1006 16.1943,94.4014 16.0439,94.5518 12.4344,94.8526 11.0808,94.8526 10.4792,93.6494 11.532,92.4462 13.788,90.3406 "/>
   <polygon id="_200217568" class="fil2" points="34.9941,26.7222 36.9492,26.7222 38.4532,27.3238 38.9044,27.6246 38.3028,28.9782 37.5509,28.6773 36.4981,28.3765 35.2949,28.3766 33.6405,28.9782 32.7381,29.7301 31.8357,31.2342 31.8357,32.4374 32.1365,33.0389 31.535,34.0917 30.9334,33.7909 30.3318,33.1893 30.1814,32.5878 30.1814,31.0838 30.6326,29.7302 31.535,28.527 32.5878,27.6246 34.2422,26.8726 "/>
   <polygon id="_200218360" class="fil6" points="94.4014,118.766 95.1534,118.916 96.6573,120.571 97.7101,121.774 99.6653,124.18 98.9133,124.481 98.3116,124.481 98.3116,124.18 94.5518,120.27 93.0478,123.278 93.1982,119.518 93.7997,118.916 "/>
   <polygon id="_200218288" class="fil2" points="18.9015,85.5279 19.503,85.8287 19.8038,86.4303 19.6534,87.0318 17.8487,88.6862 16.1943,90.0398 15.2919,90.7918 13.9383,91.0926 16.0439,88.3855 17.2471,87.3327 17.3975,87.1822 11.532,87.1822 11.8328,86.4303 "/>
   <polygon id="_200218432" class="fil10" points="94.4014,120.12 95.4542,121.022 96.8078,122.526 97.8606,123.729 98.3117,124.18 98.6126,125.083 97.1086,125.684 94.5518,126.587 94.251,126.587 94.251,121.774 "/>
   <polygon id="_200218168" class="fil1" points="21.6086,103.125 21.3079,103.876 21.3079,104.629 21.9095,105.381 23.4135,107.035 24.767,107.637 25.519,107.336 26.4214,107.787 25.2182,110.344 24.015,112.299 23.5638,112.148 24.3158,109.441 24.1654,108.689 22.5111,106.734 21.1575,105.08 20.8566,104.779 19.503,104.929 17.6983,105.23 17.2471,104.478 "/>
   <polygon id="_200218792" class="fil2" points="117.262,104.027 123.745,110.355 124.878,111.461 124.18,112.148 116.66,105.08 "/>
   <polygon id="_200219104" class="fil11" points="134.558,98.1613 135.46,98.4621 130.948,105.08 128.155,103.129 128.542,102.523 128.938,102.325 130.948,103.576 132.302,101.47 134.106,98.7629 "/>
   <polygon id="_200218984" class="fil1" points="74.6992,128.391 74.8496,128.391 75.9024,130.046 75.4512,130.497 76.0528,129.895 76.0528,132.302 80.5647,132.151 82.5199,132.001 82.8207,132.302 82.6703,132.903 82.5199,133.054 77.256,133.505 75,133.505 74.6992,129.895 "/>
   <polygon id="_200219224" class="fil12" points="114.104,116.059 115.156,116.059 115.758,115.908 116.059,116.66 116.51,118.465 115.758,119.969 115.006,120.871 113.502,121.774 112.6,122.075 111.096,122.075 109.742,121.623 109.742,120.871 110.043,120.571 110.795,120.721 111.246,120.871 112.449,120.871 113.803,120.27 115.006,119.217 115.457,118.164 115.307,117.262 114.555,116.51 113.201,116.36 113.201,116.209 "/>
   <polygon id="_200219416" class="fil6" points="16.0439,78.9104 16.4951,78.9104 16.7959,79.512 16.6455,80.264 11.6823,84.3247 10.028,85.0767 10.3288,84.4751 11.2312,83.1215 12.5848,81.7679 14.2392,80.4143 "/>
   <polygon id="_200220160" class="fil2" points="21.9094,92.4462 22.511,92.747 22.6614,93.6494 19.6534,94.1007 16.1943,94.4015 14.5399,93.9501 15.1415,93.3485 "/>
   <polygon id="_200219872" class="fil2" points="37.7013,110.193 38.4533,110.193 38.9045,110.494 38.7541,111.096 36.6485,114.104 36.1973,114.856 34.0917,115.758 34.0917,115.758 35.7461,113.051 "/>
   <polygon id="_200219728" class="fil13" points="139.22,81.6176 141.175,81.768 142.529,82.0688 142.529,82.9712 141.927,83.1216 139.972,82.8208 138.619,83.1216 137.867,83.1215 137.114,82.2191 "/>
   <polygon id="_200220328" class="fil1" points="53.7939,124.932 54.3954,125.233 55.7491,126.286 55.7491,126.286 55.8994,126.286 55.8994,128.993 55.4482,130.647 55.2978,130.948 54.5458,130.798 54.3954,130.046 54.6962,128.542 54.5458,126.737 53.9442,125.383 "/>
   <polygon id="_200219896" class="fil4" points="48.9811,124.481 49.5827,124.631 49.2819,125.534 48.0787,128.391 47.6274,128.542 47.0259,128.091 47.4771,126.436 48.3795,124.03 48.9811,124.481 "/>
   <polygon id="_200220616" class="fil14" points="136.212,87.3327 138.017,87.9343 139.972,88.6863 140.273,89.2878 139.972,89.8894 138.318,89.4382 136.513,88.8366 136.062,88.5359 136.212,88.235 "/>
   <polygon id="_200198344" class="fil11" points="124.18,112.148 121.87,109.977 122.61,109.247 124.878,111.461 "/>
  </g>
 </g>
</svg>
